HIERARCHY
ROOT hip
{
  OFFSET 0 0 0
  CHANNELS 6 Xposition Yposition Zposition Zrotation Yrotation Xrotation
  JOINT abdomen
  {
    OFFSET 0 20.6881 -0.73152
    CHANNELS 3 Zrotation Xrotation Yrotation
    JOINT chest
    {
      OFFSET 0 11.7043 -0.48768
      CHANNELS 3 Zrotation Xrotation Yrotation
      JOINT neck
      {
        OFFSET 0 22.1894 -2.19456
        CHANNELS 3 Zrotation Xrotation Yrotation
        JOINT head
        {
          OFFSET -0.24384 7.07133 1.2192
          CHANNELS 3 Zrotation Xrotation Yrotation
          JOINT leftEye
          {
            OFFSET 4.14528 8.04674 8.04672
            CHANNELS 3 Zrotation Xrotation Yrotation
            End Site
            {
              OFFSET 1 0 0
            }
          }
          JOINT rightEye
          {
            OFFSET -3.6576 8.04674 8.04672
            CHANNELS 3 Zrotation Xrotation Yrotation
            End Site
            {
              OFFSET 1 0 0
            }
          }
        }
      }
      JOINT rCollar
      {
        OFFSET -2.68224 19.2634 -4.8768
        CHANNELS 3 Zrotation Xrotation Yrotation
        JOINT rShldr
        {
          OFFSET -8.77824 -1.95073 1.46304
          CHANNELS 3 Zrotation Xrotation Yrotation
          JOINT rForeArm
          {
            OFFSET -28.1742 -1.7115 0.48768
            CHANNELS 3 Zrotation Xrotation Yrotation
            JOINT rHand
            {
              OFFSET -22.5879 0.773209 7.07136
              CHANNELS 3 Zrotation Xrotation Yrotation
              JOINT rThumb1
              {
                OFFSET -1.2192 -0.487915 3.41376
                CHANNELS 3 Zrotation Xrotation Yrotation
                JOINT rThumb2
                {
                  OFFSET -3.37035 -0.52449 3.41376
                  CHANNELS 3 Zrotation Xrotation Yrotation
                  End Site
                  {
                    OFFSET -1.78271 -1.18214 1.43049
                  }
                }
              }
              JOINT rIndex1
              {
                OFFSET -7.75947 0.938293 5.60832
                CHANNELS 3 Zrotation Xrotation Yrotation
                JOINT rIndex2
                {
                  OFFSET -2.54057 -0.884171 1.56538
                  CHANNELS 3 Zrotation Xrotation Yrotation
                  End Site
                  {
                    OFFSET -1.62519 -0.234802 1.16502
                  }
                }
              }
              JOINT rMid1
              {
                OFFSET -8.24714 1.18213 3.41376
                CHANNELS 3 Zrotation Xrotation Yrotation
                JOINT rMid2
                {
                  OFFSET -3.10165 -0.590103 1.0647
                  CHANNELS 3 Zrotation Xrotation Yrotation
                  End Site
                  {
                    OFFSET -2.48547 -0.328903 0.83742
                  }
                }
              }
              JOINT rRing1
              {
                OFFSET -8.82822 0.546677 1.51678
                CHANNELS 3 Zrotation Xrotation Yrotation
                JOINT rRing2
                {
                  OFFSET -2.60934 -0.819778 -0.0198488
                  CHANNELS 3 Zrotation Xrotation Yrotation
                  End Site
                  {
                    OFFSET -2.33842 -0.294052 0.168128
                  }
                }
              }
              JOINT rPinky1
              {
                OFFSET -8.27202 -0.0477905 -0.4584
                CHANNELS 3 Zrotation Xrotation Yrotation
                JOINT rPinky2
                {
                  OFFSET -1.82734 -0.647385 -0.700984
                  CHANNELS 3 Zrotation Xrotation Yrotation
                  End Site
                  {
                    OFFSET -1.69225 -0.51767 -0.607171
                  }
                }
              }
            }
          }
        }
      }
      JOINT lCollar
      {
        OFFSET 2.68224 19.2634 -4.8768
        CHANNELS 3 Zrotation Xrotation Yrotation
        JOINT lShldr
        {
          OFFSET 8.77824 -1.95073 1.46304
          CHANNELS 3 Zrotation Xrotation Yrotation
          JOINT lForeArm
          {
            OFFSET 28.1742 -1.7115 0.48768
            CHANNELS 3 Zrotation Xrotation Yrotation
            JOINT lHand
            {
              OFFSET 22.5879 0.773209 7.07136
              CHANNELS 3 Zrotation Xrotation Yrotation
              JOINT lThumb1
              {
                OFFSET 1.2192 -0.487915 3.41376
                CHANNELS 3 Zrotation Xrotation Yrotation
                JOINT lThumb2
                {
                  OFFSET 3.37035 -0.52449 3.41376
                  CHANNELS 3 Zrotation Xrotation Yrotation
                  End Site
                  {
                    OFFSET 1.78271 -1.18214 1.43049
                  }
                }
              }
              JOINT lIndex1
              {
                OFFSET 7.75947 0.938293 5.60832
                CHANNELS 3 Zrotation Xrotation Yrotation
                JOINT lIndex2
                {
                  OFFSET 2.54057 -0.884171 1.56538
                  CHANNELS 3 Zrotation Xrotation Yrotation
                  End Site
                  {
                    OFFSET 1.62519 -0.234802 1.16502
                  }
                }
              }
              JOINT lMid1
              {
                OFFSET 8.24714 1.18213 3.41376
                CHANNELS 3 Zrotation Xrotation Yrotation
                JOINT lMid2
                {
                  OFFSET 3.10165 -0.590103 1.0647
                  CHANNELS 3 Zrotation Xrotation Yrotation
                  End Site
                  {
                    OFFSET 2.48547 -0.328903 0.83742
                  }
                }
              }
              JOINT lRing1
              {
                OFFSET 8.82822 0.546677 1.51678
                CHANNELS 3 Zrotation Xrotation Yrotation
                JOINT lRing2
                {
                  OFFSET 2.60934 -0.819778 -0.0198488
                  CHANNELS 3 Zrotation Xrotation Yrotation
                  End Site
                  {
                    OFFSET 2.33842 -0.294052 0.168128
                  }
                }
              }
              JOINT lPinky1
              {
                OFFSET 8.27202 -0.0477905 -0.4584
                CHANNELS 3 Zrotation Xrotation Yrotation
                JOINT lPinky2
                {
                  OFFSET 1.82734 -0.647385 -0.700984
                  CHANNELS 3 Zrotation Xrotation Yrotation
                  End Site
                  {
                    OFFSET 1.69225 -0.51767 -0.607171
                  }
                }
              }
            }
          }
        }
      }
    }
  }
  JOINT rButtock
  {
    OFFSET -8.77824 4.35084 1.2192
    CHANNELS 3 Zrotation Xrotation Yrotation
    JOINT rThigh
    {
      OFFSET 0 -1.70687 -2.19456
      CHANNELS 3 Zrotation Xrotation Yrotation
      JOINT rShin
      {
        OFFSET 0 -36.8199 0.73152
        CHANNELS 3 Zrotation Xrotation Yrotation
        JOINT rFoot
        {
          OFFSET 0.73152 -45.1104 -5.12064
          CHANNELS 3 Zrotation Xrotation Yrotation
          End Site
          {
            OFFSET -1.1221 -3.69964 12.103
          }
        }
      }
    }
  }
  JOINT lButtock
  {
    OFFSET 8.77824 4.35084 1.2192
    CHANNELS 3 Zrotation Xrotation Yrotation
    JOINT lThigh
    {
      OFFSET 0 -1.70687 -2.19456
      CHANNELS 3 Zrotation Xrotation Yrotation
      JOINT lShin
      {
        OFFSET 0 -36.8199 0.73152
        CHANNELS 3 Zrotation Xrotation Yrotation
        JOINT lFoot
        {
          OFFSET -0.73152 -45.1104 -5.12064
          CHANNELS 3 Zrotation Xrotation Yrotation
          End Site
          {
            OFFSET 1.1221 -3.69964 12.103
          }
        }
      }
    }
  }
}
MOTION
Frames:	6
Frame Time:	0.00833333
2.76794 72.2032 -14.9223 0.1252 5.1499 4.241 1.47308 52.1909 3.48864 1.8357 -2.95421 1.3494 -4.05912 4.41416 2.51406 20.6582 -42.3265 14.6473 -0.0 0.0 0.0 -0.0 0.0 0.0 -1.22443e-13 -6.36111e-15 8.12035e-14 37.5467 15.603 69.4658 -24.1702 -49.1749 102.742 -1.22204 29.725 4.60261 -7.13669e-10 -1.11741e-09 2.82977e-10 -1.23075e-09 -1.91595e-09 5.07358e-10 -7.13659e-10 -1.11741e-09 2.82955e-10 7.73091 5.47488 0.417314 -7.1367e-10 -1.11741e-09 2.82971e-10 2.90554 0.965183 0.102902 -7.13661e-10 -1.11741e-09 2.82974e-10 10.2786 0.731801 0.0259123 -7.13674e-10 -1.11741e-09 2.82983e-10 2.22167 -0.733487 -0.20892 -1.22467e-13 -6.36111e-15 8.09551e-14 -40.3787 15.2776 -72.1303 23.3287 -50.2164 -105.344 0.0161332 3.62384 -0.509984 4.61576e-10 -3.7559e-10 -4.40141e-10 7.96256e-10 -6.43474e-10 -7.65897e-10 4.61568e-10 -3.75587e-10 -4.40132e-10 -7.73091 5.47488 -0.417314 4.61578e-10 -3.75586e-10 -4.40138e-10 -2.90554 0.965183 -0.102902 4.61568e-10 -3.75585e-10 -4.4014e-10 -10.2786 0.731801 -0.0259123 4.6158e-10 -3.75584e-10 -4.40144e-10 -2.22167 -0.733487 0.20892 -2.03217e-16 0.0 -3.88251e-19 -5.91752 -45.2317 4.01623 -0.87627 56.2998 1.25555 -3.20126 -9.60275 -11.476 2.03217e-16 0.0 3.88251e-19 -5.16855 -47.9955 -12.4008 0.762849 56.0665 -1.51857 0.519616 -7.61915 1.38114
2.77265 72.2437 -14.8481 0.1096 5.0891 4.0347 1.81177 52.2689 3.30065 1.85438 -3.10289 1.34648 -4.34932 4.70425 1.99136 21.1253 -42.5801 13.7824 -0.0 0.0 0.0 -0.0 0.0 0.0 -1.16231e-13 -8.54917e-15 9.82361e-14 37.2541 16.1659 69.5097 -23.8975 -49.5375 103.61 -1.1316 28.7294 4.41817 -6.01115e-10 -8.44398e-10 3.81766e-10 -1.03353e-09 -1.43896e-09 6.75933e-10 -6.01106e-10 -8.44396e-10 3.81745e-10 7.73091 5.47488 0.417314 -6.01116e-10 -8.44397e-10 3.81759e-10 2.90554 0.965183 0.102902 -6.01106e-10 -8.44396e-10 3.81763e-10 10.2786 0.731801 0.0259123 -6.0112e-10 -8.44392e-10 3.81771e-10 2.22167 -0.733487 -0.20892 -1.16239e-13 -8.54622e-15 9.80257e-14 -40.1981 15.4516 -71.8621 23.6194 -49.886 -104.471 0.017751 3.73192 -0.525267 5.49427e-10 -4.57324e-10 -2.32397e-10 9.48907e-10 -7.86365e-10 -4.06558e-10 5.49419e-10 -4.57321e-10 -2.32387e-10 -7.73091 5.47488 -0.417314 5.49429e-10 -4.57321e-10 -2.32393e-10 -2.90554 0.965183 -0.102902 5.49419e-10 -4.5732e-10 -2.32396e-10 -10.2786 0.731801 -0.0259123 5.49429e-10 -4.57319e-10 -2.324e-10 -2.22167 -0.733487 0.20892 -2.03217e-16 0.0 -3.88251e-19 -5.81656 -45.1823 4.08649 -0.872938 56.2329 1.25197 -3.21498 -9.54939 -11.5673 2.03217e-16 0.0 3.88251e-19 -5.09755 -47.9849 -12.3844 0.761558 56.0339 -1.51596 0.50737 -7.6169 1.32273
2.77404 72.2797 -14.8321 0.0482 5.1482 4.0558 2.11544 52.4458 3.14839 1.83752 -3.37228 1.34844 -4.66896 4.96591 1.44128 21.6637 -42.7418 12.8713 -0.0 0.0 0.0 -0.0 0.0 0.0 -8.10695e-14 -1.70985e-14 9.31989e-14 37.02 16.5988 69.6248 -23.5632 -49.9504 104.641 -1.04395 27.7208 4.23456 -4.15623e-11 4.37945e-11 3.50067e-10 -6.59637e-11 9.05045e-11 6.07516e-10 -4.15544e-11 4.37968e-11 3.50048e-10 7.73091 5.47488 0.417314 -4.15638e-11 4.37955e-11 3.5006e-10 2.90554 0.965183 0.102902 -4.15533e-11 4.37966e-11 3.50063e-10 10.2786 0.731801 0.0259123 -4.15678e-11 4.37995e-11 3.5007e-10 2.22167 -0.733487 -0.20892 -8.10416e-14 -1.70922e-14 9.30561e-14 -39.7343 15.8933 -71.4504 23.9581 -49.471 -103.423 0.0181273 3.71085 -0.522315 4.06941e-10 -2.97723e-10 3.16618e-10 7.04039e-10 -5.1355e-10 5.44869e-10 4.06932e-10 -2.9772e-10 3.1663e-10 -7.73091 5.47488 -0.417314 4.06942e-10 -2.97721e-10 3.16623e-10 -2.90554 0.965183 -0.102902 4.06932e-10 -2.97721e-10 3.16619e-10 -10.2786 0.731801 -0.0259123 4.06942e-10 -2.97721e-10 3.16614e-10 -2.22167 -0.733487 0.20892 -2.03217e-16 0.0 -3.88251e-19 -5.65746 -45.0715 4.20666 -0.868379 56.14 1.24693 -3.22346 -9.48224 -11.6501 2.03217e-16 0.0 3.88251e-19 -4.95557 -47.9012 -12.3053 0.759556 55.9875 -1.51295 0.495551 -7.63722 1.2597
2.76083 72.3077 -14.8264 -0.0777 5.1602 4.0825 2.38699 52.6704 2.97254 1.79377 -3.66459 1.33977 -4.98049 5.24665 0.894932 22.2937 -42.9124 12.006 -0.0 0.0 0.0 -0.0 0.0 0.0 -3.71852e-14 -2.66413e-14 7.93562e-14 36.9028 16.8187 69.8516 -23.1907 -50.3795 105.752 -0.97323 26.8554 4.08013 6.17591e-10 1.05806e-09 3.03297e-10 1.07335e-09 1.83481e-09 5.10411e-10 6.17597e-10 1.05807e-09 3.03282e-10 7.73091 5.47488 0.417314 6.17589e-10 1.05807e-09 3.0329e-10 2.90554 0.965183 0.102902 6.176e-10 1.05807e-09 3.03294e-10 10.2786 0.731801 0.0259123 6.17585e-10 1.05807e-09 3.03298e-10 2.22167 -0.733487 -0.20892 -3.71243e-14 -2.66325e-14 7.92778e-14 -39.1124 16.5057 -70.9512 24.2857 -49.0338 -102.373 0.0164293 3.53039 -0.496844 2.05819e-10 -6.61288e-11 9.2608e-10 3.57829e-10 -1.16361e-10 1.60131e-09 2.0581e-10 -6.61271e-11 9.26092e-10 -7.73091 5.47488 -0.417314 2.0582e-10 -6.61289e-11 9.26085e-10 -2.90554 0.965183 -0.102902 2.05811e-10 -6.61288e-11 9.2608e-10 -10.2786 0.731801 -0.0259123 2.0582e-10 -6.61298e-11 9.26074e-10 -2.22167 -0.733487 0.20892 -2.03217e-16 0.0 -3.88251e-19 -5.51071 -44.9428 4.32992 -0.863957 56.0488 1.2419 -3.22613 -9.42707 -11.7029 2.03217e-16 0.0 3.88251e-19 -4.81469 -47.7896 -12.2092 0.757394 55.9394 -1.51011 0.486732 -7.66509 1.20945
2.76675 72.3156 -14.8215 -0.1037 5.1033 4.097 2.62969 52.8908 2.71342 1.73157 -3.88202 1.30488 -5.24517 5.59408 0.383326 23.0284 -43.1964 11.2738 -0.0 0.0 0.0 -0.0 0.0 0.0 -4.80566e-15 -3.18098e-14 6.99722e-14 36.9623 16.7429 70.2295 -22.8101 -50.7956 106.855 -0.930065 26.2895 3.98111 1.02895e-09 1.70931e-09 3.56877e-10 1.78582e-09 2.95632e-09 5.92921e-10 1.02895e-09 1.70932e-09 3.56865e-10 7.73091 5.47488 0.417314 1.02894e-09 1.70931e-09 3.56871e-10 2.90554 0.965183 0.102902 1.02896e-09 1.70931e-09 3.56874e-10 10.2786 0.731801 0.0259123 1.02894e-09 1.70932e-09 3.56877e-10 2.22167 -0.733487 -0.20892 -4.73637e-15 -3.18007e-14 6.99225e-14 -38.4551 17.1896 -70.419 24.5565 -48.6464 -101.473 0.012265 3.16031 -0.444608 1.17765e-10 6.81164e-11 1.31516e-09 2.06455e-10 1.1387e-10 2.27571e-09 1.17756e-10 6.81175e-11 1.31518e-09 -7.73091 5.47488 -0.417314 1.17765e-10 6.81153e-11 1.31517e-09 -2.90554 0.965183 -0.102902 1.17756e-10 6.81152e-11 1.31516e-09 -10.2786 0.731801 -0.0259123 1.17765e-10 6.8114e-11 1.31516e-09 -2.22167 -0.733487 0.20892 -2.03217e-16 0.0 -3.88251e-19 -5.44587 -44.8398 4.41015 -0.861005 55.9868 1.23837 -3.22255 -9.40962 -11.7039 2.03217e-16 0.0 3.88251e-19 -4.74627 -47.6954 -12.1415 0.755614 55.9015 -1.508 0.483579 -7.6855 1.18937
2.81022 72.317 -14.8151 0.0009 5.0528 4.0712 2.84028 53.105 2.31625 1.64577 -3.99739 1.22893 -5.47766 6.06257 -0.080556 23.9448 -43.6596 10.7462 -0.0 0.0 0.0 -0.0 0.0 0.0 9.2175e-15 -3.3125e-14 7.14926e-14 37.2512 16.2928 70.8491 -22.394 -51.2393 108.028 -0.917287 26.1069 3.94979 1.12633e-09 1.89927e-09 6.12188e-10 1.95869e-09 3.28768e-09 1.03195e-09 1.12634e-09 1.89927e-09 6.12178e-10 7.73091 5.47488 0.417314 1.12633e-09 1.89927e-09 6.12183e-10 2.90554 0.965183 0.102902 1.12634e-09 1.89927e-09 6.12186e-10 10.2786 0.731801 0.0259123 1.12632e-09 1.89927e-09 6.12189e-10 2.22167 -0.733487 -0.20892 9.25763e-15 -3.31195e-14 7.14188e-14 -37.7269 17.9998 -69.8058 24.7934 -48.3011 -100.666 0.00562636 2.47831 -0.348458 2.11781e-10 1.15115e-10 1.45401e-09 3.68749e-10 1.96055e-10 2.5161e-09 2.11773e-10 1.15116e-10 1.45402e-09 -7.73091 5.47488 -0.417314 2.11781e-10 1.15114e-10 1.45402e-09 -2.90554 0.965183 -0.102902 2.11772e-10 1.15114e-10 1.45401e-09 -10.2786 0.731801 -0.0259123 2.11781e-10 1.15113e-10 1.454e-09 -2.22167 -0.733487 0.20892 -2.03217e-16 0.0 -3.88251e-19 -5.49976 -44.7626 4.43493 -0.860322 55.971 1.23724 -3.21091 -9.45972 -11.6241 2.03217e-16 0.0 3.88251e-19 -4.78478 -47.6178 -12.1131 0.754462 55.88 -1.5069 0.488533 -7.69796 1.21338
